<svg width="89" height="110" viewBox="0 0 89 110" fill="none" xmlns="http://www.w3.org/2000/svg">
<path fill-rule="evenodd" clip-rule="evenodd" d="M33.2864 0C34.0645 0.0134978 34.8371 0.0903993 35.6042 0.230705C36.5593 0.731601 37.538 1.19301 38.5401 1.61493C40.9452 2.28857 43.3661 2.90379 45.8026 3.46057C50.4156 4.93628 54.7422 6.98698 58.7824 9.61269C65.8345 14.0659 72.1442 19.4233 77.7114 25.6851C83.1345 32.4838 86.637 40.174 88.2188 48.7556C88.8185 56.5948 88.2004 64.3363 86.3646 71.9799C85.865 73.5896 85.1955 75.1276 84.3558 76.594C80.5468 82.8462 75.5765 87.9986 69.4444 92.0512C66.8176 93.7687 64.1907 95.4861 61.5638 97.2036C61.5124 97.7676 61.4608 98.3314 61.4093 98.8954C61.5057 101.253 61.583 103.611 61.6411 105.97C61.715 108.97 59.4778 103.804 60.0959 97.3574C56.0777 98.7247 52.0343 100.032 47.9659 101.279C43.7127 102.606 39.3861 102.965 34.9861 102.356C33.5129 101.74 31.9933 101.304 30.4277 101.049C30.1123 101.191 29.7775 101.242 29.4233 101.202C29.4632 103.05 29.489 104.895 29.5006 106.739C29.4355 107.412 29.3325 108.078 29.1915 108.739C29.0795 108.994 28.8992 109.071 28.6507 108.97C28.157 108.368 27.8736 107.675 27.8008 106.893C27.7108 105.482 27.7366 104.072 27.8781 102.664C27.8747 101.798 27.746 100.952 27.4918 100.126C25.3918 98.8626 23.2543 97.6579 21.0791 96.5115C17.5299 94.1587 14.4137 91.3134 11.7306 87.9754C9.1989 84.7892 6.72655 81.5593 4.31354 78.2858C1.52983 73.4067 0.216396 68.1517 0.373235 62.521C0.41202 56.5862 1.67384 50.9211 4.15902 45.5257C6.0363 41.4778 8.30252 37.6839 10.958 34.1443C12.173 32.8834 13.435 31.6787 14.7438 30.5299C18.4775 27.5827 22.3405 24.8143 26.3329 22.2246C27.6364 21.5758 28.9755 21.0118 30.3505 20.5327C30.8287 19.8891 31.3437 19.2738 31.8957 18.6871C32.6545 18.4576 33.4271 18.4062 34.2135 18.5333C34.3422 18.6614 34.4711 18.7897 34.5998 18.9178C34.7543 19.5842 34.9088 20.2508 35.0634 20.9172C35.9431 21.2704 36.7929 21.6804 37.613 22.1476C37.9064 23.8916 37.1853 25.0451 35.4497 25.6082C32.2022 26.0702 29.2149 27.1981 26.4874 28.9919C22.1721 32.0547 18.1287 35.4641 14.3575 39.2198C11.804 42.5593 9.89826 46.2506 8.64015 50.2936C4.29221 63.433 6.86747 75.0195 16.3662 85.0531C17.4479 86.1297 18.5295 87.2064 19.6112 88.283C19.8649 87.482 20.0194 86.6618 20.0748 85.8221C20.0017 80.6437 20.0273 75.4657 20.152 70.288C20.0675 67.7624 19.8873 65.2502 19.6112 62.7517C19.8241 62.4882 20.0817 62.283 20.3838 62.1365C20.4869 61.2649 20.4869 60.3934 20.3838 59.5218C19.7612 58.7705 19.3749 57.9246 19.2249 56.9841C19.8428 53.4457 21.8001 50.9336 25.0967 49.4477C27.4858 48.5312 29.9581 48.0698 32.5138 48.0635C33.2015 48.9251 33.9225 49.7453 34.6771 50.5243C35.2862 50.6771 35.9043 50.7796 36.5313 50.8319C35.9849 52.9892 34.6973 54.5015 32.6683 55.3691C31.7606 55.0961 30.8335 54.9423 29.8869 54.9077C28.5416 55.0368 27.2024 55.2162 25.8693 55.446C24.6971 56.6122 23.6413 57.8681 22.7016 59.2142C22.6097 66.9722 22.1977 74.7137 21.4655 82.4385C21.2922 84.4871 21.2408 86.5379 21.3109 88.5906C26.132 93.7193 32.0811 96.3597 39.1582 96.5115C39.0386 96.1416 38.9613 95.757 38.9264 95.3579C38.875 92.4357 38.8233 89.5134 38.7719 86.5912C38.7431 85.3701 38.4598 84.2166 37.922 83.1306C36.7014 82.6633 35.9032 83.0478 35.5269 84.2841C35.5005 85.0582 35.4232 85.8272 35.2951 86.5912C34.9849 85.5105 34.6502 84.4339 34.2908 83.3613C33.7439 82.948 33.1516 82.8454 32.5138 83.0537C32.5138 85.5658 32.5138 88.078 32.5138 90.59C32.3592 90.59 32.2047 90.59 32.0502 90.59C31.5256 88.5828 31.4741 86.5576 31.8957 84.5148C31.8241 83.8107 31.6954 83.1186 31.5094 82.4385C31.0126 83.2875 30.7551 84.2103 30.7368 85.2069C30.7828 87.5129 30.7828 89.8199 30.7368 92.1281C30.571 92.248 30.3906 92.2224 30.1959 92.0512C29.2931 91.3331 28.8809 90.3846 28.9598 89.2058C29.0858 87.1019 29.2404 84.9999 29.4233 82.8999C29.4816 81.603 29.1469 80.4238 28.4189 79.3624C27.3694 78.4725 26.4937 77.4473 25.7921 76.2863C25.4841 75.3838 25.5614 74.5122 26.0238 73.6717C26.6336 73.8726 27.2001 74.1545 27.7236 74.5176C28.7298 74.6074 29.7084 74.8126 30.6595 75.1328C32.0066 76.2174 33.3973 77.2429 34.8316 78.2089C36.0237 78.4831 37.2341 78.6112 38.4628 78.5934C41.3278 78.5113 44.1865 78.3319 47.0388 78.0551C49.9736 77.6452 52.7036 76.6712 55.2284 75.1328C56.7352 74.1459 58.1515 73.0436 59.4778 71.8261C59.8247 71.924 60.1595 72.0521 60.4822 72.2106C61.0471 72.697 61.6652 73.1071 62.3364 73.441C62.5855 73.5517 62.8173 73.5262 63.0318 73.3641C62.8057 71.4572 62.677 69.5347 62.6455 67.5965C62.7903 64.4955 62.8161 61.3937 62.7228 58.2914C62.6174 56.9931 62.4114 55.7115 62.1047 54.4463C61.9834 54.1716 61.8032 53.9409 61.5638 53.7542C59.9156 52.9852 58.2674 52.2162 56.6191 51.4471C55.9329 51.0716 55.3406 50.5846 54.8421 49.986C54.235 50.6391 53.6684 51.3055 53.1424 51.9855C52.5699 51.4919 51.9776 51.0305 51.3654 50.6012C50.3758 50.8427 49.7836 51.4579 49.5884 52.4469C49.5624 53.6805 49.4852 54.9109 49.3566 56.1381C49.3052 56.1125 49.2536 56.0869 49.2021 56.0612C48.8291 55.0752 48.6746 54.0498 48.7385 52.9852C48.7565 51.1322 48.9882 49.3122 49.4339 47.5252C50.6351 46.427 52.0002 45.5811 53.5287 44.9874C55.3553 44.3814 57.1581 43.715 58.937 42.988C59.1946 42.8854 59.452 42.8854 59.7096 42.988C63.6622 45.4863 66.624 48.8443 68.5946 53.0621C68.5961 53.5776 68.3387 53.9364 67.822 54.1387C67.6327 54.083 67.4525 54.0061 67.2811 53.908C66.7351 53.3129 66.1428 52.7746 65.5041 52.2931C65.3628 52.4204 65.2598 52.5742 65.1951 52.7545C64.9261 54.384 64.7716 56.0245 64.7315 57.6762C64.7544 62.5976 64.7544 67.5193 64.7315 72.4413C64.7116 73.8498 64.5313 75.234 64.1907 76.594C63.6012 76.0384 63.1634 75.3718 62.8773 74.5945C60.1385 77.8839 56.8163 80.4217 52.9106 82.2078C52.2227 82.9772 52.1196 83.8232 52.6016 84.7455C51.5139 85.1955 50.3806 85.4519 49.2021 85.5145C47.4392 85.2508 45.6878 84.9175 43.9484 84.5148C42.9199 84.4055 41.8898 84.3286 40.8579 84.2841C40.8562 86.6178 40.8046 88.9503 40.7034 91.2822C40.6897 93.0678 40.8442 94.8365 41.167 96.5884C47.4214 96.647 53.3961 95.3908 59.0915 92.8202C64.0319 90.3619 68.8736 87.7473 73.6165 84.9762C76.5302 81.2531 79.2343 77.3823 81.7289 73.3641C85.5179 66.651 86.5996 59.5249 84.9739 51.9855C83.5323 43.6827 80.0298 36.4027 74.4664 30.1454C72.0199 27.3001 69.3672 24.6597 66.5085 22.2246C64.7471 21.0915 62.8929 20.1173 60.9458 19.3023C56.207 17.3029 51.4685 15.3034 46.7298 13.304C40.8813 11.2169 34.8549 10.0377 28.6507 9.7665C26.7782 9.65013 24.9754 9.23998 23.2425 8.53607C22.2649 7.793 21.2349 7.12653 20.152 6.53663C19.328 6.38283 18.5037 6.22903 17.6797 6.07522C16.7501 5.91584 16.0289 5.45443 15.5164 4.691C16.3495 3.04429 17.6888 2.07021 19.5339 1.76874C23.6896 1.17514 27.8103 1.38021 31.8957 2.38395C40.5407 4.73941 48.9365 7.7642 57.0827 11.4583C58.3189 12.2786 59.5551 13.0989 60.7912 13.9192C61.4631 14.3581 62.1841 14.6144 62.9545 14.6882C59.8405 11.7778 56.2865 9.52206 52.2925 7.92086C49.1459 6.67172 45.9525 5.54383 42.7122 4.53719C38.6889 3.45851 34.7229 2.22808 30.814 0.845917C31.02 0.640847 31.2261 0.435775 31.4321 0.230705C32.0792 0.203608 32.6973 0.126706 33.2864 0Z" fill="#323232"/>
</svg>
