<svg width="56" height="40" viewBox="0 0 56 40" fill="none" xmlns="http://www.w3.org/2000/svg">
<rect width="56" height="40" rx="12" fill="#F4F4F4"/>
<path d="M17.4697 27.2174C17.1768 27.5103 17.1768 27.9852 17.4697 28.2781C17.7626 28.571 18.2374 28.571 18.5303 28.2781L17.4697 27.2174ZM33.0743 12.6735L32.544 12.1432L32.544 12.1432L33.0743 12.6735ZM36.3265 12.6735L36.8568 12.1432L36.8568 12.1432L36.3265 12.6735ZM36.3264 15.9257L35.7961 15.3954L35.7961 15.3954L36.3264 15.9257ZM36.124 16.1056L35.6597 15.5166L35.6597 15.5166L36.124 16.1056ZM29.773 20.1568C29.4477 20.4132 29.3919 20.8848 29.6483 21.2101C29.9047 21.5354 30.3763 21.5912 30.7016 21.3348L29.773 20.1568ZM28.1556 17.6125C27.8627 17.3196 27.3879 17.3196 27.095 17.6125C26.8021 17.9054 26.8021 18.3803 27.095 18.6732L28.1556 17.6125ZM31.7142 22.2317L31.1839 22.762L31.1839 22.762L31.7142 22.2317ZM29.8465 24.8065L30.3768 25.3368H30.3768L29.8465 24.8065ZM18.5303 27.2378C18.2374 26.9449 17.7626 26.9449 17.4697 27.2378C17.1768 27.5307 17.1768 28.0056 17.4697 28.2984L18.5303 27.2378ZM17.25 27.7699C17.25 28.1842 17.5858 28.5199 18 28.5199C18.4142 28.5199 18.75 28.1842 18.75 27.7699H17.25ZM18.75 27.7499C18.75 27.3357 18.4142 26.9999 18 26.9999C17.5858 26.9999 17.25 27.3357 17.25 27.7499H18.75ZM18.5303 28.2781L33.6046 13.2039L32.544 12.1432L17.4697 27.2174L18.5303 28.2781ZM33.6046 13.2039C34.2098 12.5987 35.191 12.5987 35.7961 13.2039L36.8568 12.1432C35.6658 10.9523 33.7349 10.9523 32.544 12.1432L33.6046 13.2039ZM35.7961 13.2039C36.4013 13.809 36.4013 14.7902 35.7961 15.3954L36.8568 16.456C38.0477 15.2651 38.0477 13.3342 36.8568 12.1432L35.7961 13.2039ZM35.7961 15.3954C35.7531 15.4384 35.7075 15.4789 35.6597 15.5166L36.5882 16.6946C36.6824 16.6204 36.772 16.5408 36.8568 16.456L35.7961 15.3954ZM35.6597 15.5166L29.773 20.1568L30.7016 21.3348L36.5883 16.6946L35.6597 15.5166ZM27.095 18.6732L31.1839 22.762L32.2445 21.7014L28.1556 17.6125L27.095 18.6732ZM31.1839 22.762C31.0862 22.6644 31.0862 22.5061 31.1838 22.4085L32.2445 23.4692C32.7327 22.981 32.7327 22.1895 32.2445 21.7014L31.1839 22.762ZM31.1838 22.4085C31.1838 22.4085 31.1838 22.4085 31.1838 22.4085C31.1838 22.4085 31.1838 22.4085 31.1838 22.4085C31.1838 22.4085 31.1838 22.4085 31.1838 22.4085C31.1838 22.4085 31.1838 22.4085 31.1838 22.4085C31.1838 22.4085 31.1838 22.4085 31.1838 22.4085C31.1838 22.4085 31.1838 22.4086 31.1838 22.4086C31.1838 22.4086 31.1838 22.4086 31.1838 22.4086C31.1837 22.4086 31.1837 22.4086 31.1837 22.4087C31.1836 22.4087 31.1832 22.4091 31.1828 22.4095C31.184 23.4693 32.244 23.4696 32.2442 23.4694C32.2443 23.4694 32.2444 23.4693 32.2444 23.4693C32.2444 23.4692 32.2445 23.4692 32.2445 23.4692C32.2445 23.4692 32.2445 23.4692 32.2445 23.4692C32.2445 23.4692 32.2445 23.4692 32.2445 23.4692C32.2445 23.4692 32.2445 23.4692 32.2445 23.4692C32.2445 23.4692 32.2445 23.4692 32.2445 23.4692C32.2445 23.4692 32.2445 23.4692 32.2445 23.4692C32.2445 23.4692 32.2445 23.4692 32.2445 23.4692C32.2445 23.4692 32.2445 23.4692 32.2445 23.4692C32.2445 23.4692 32.2445 23.4692 32.2445 23.4692C32.2445 23.4692 32.2445 23.4692 32.2445 23.4692C32.2445 23.4691 32.2445 23.4691 32.2445 23.4691C32.2445 23.4691 32.2445 23.4691 32.2445 23.4691C32.2445 23.4691 32.2445 23.4691 32.2445 23.4691C32.2445 23.4691 32.2445 23.4691 32.2445 23.4691C32.2445 23.4691 32.2446 23.4691 32.2446 23.4691C32.2446 23.4691 32.2446 23.4691 32.2446 23.469C32.2446 23.469 32.2447 23.4689 32.2448 23.4689C32.245 23.4687 32.2447 22.4087 31.1849 22.4075C31.1845 22.4078 31.1841 22.4083 31.184 22.4083C31.184 22.4083 31.184 22.4084 31.1839 22.4084C31.1839 22.4084 31.1839 22.4084 31.1839 22.4084C31.1839 22.4084 31.1839 22.4084 31.1839 22.4084C31.1839 22.4085 31.1839 22.4085 31.1839 22.4085C31.1839 22.4085 31.1839 22.4085 31.1839 22.4085C31.1839 22.4085 31.1839 22.4085 31.1839 22.4085C31.1839 22.4085 31.1839 22.4085 31.1839 22.4085C31.1839 22.4085 31.1839 22.4085 31.1839 22.4085L32.2445 23.4692C32.2445 23.4692 32.2445 23.4692 32.2445 23.4692C32.2445 23.4692 32.2445 23.4692 32.2445 23.4692C32.2445 23.4692 32.2445 23.4692 32.2445 23.4692C32.2445 23.4692 32.2445 23.4692 32.2445 23.4692C32.2445 23.4692 32.2445 23.4692 32.2445 23.4692C32.2445 23.4692 32.2445 23.4692 32.2445 23.4692C32.2445 23.4692 32.2444 23.4692 32.2444 23.4692C32.2444 23.4692 32.2444 23.4692 32.2444 23.4692C32.2444 23.4693 32.2444 23.4693 32.2443 23.4693C32.2443 23.4694 32.2439 23.4698 32.2435 23.4702C31.1837 23.469 31.1834 22.409 31.1836 22.4088C31.1836 22.4087 31.1837 22.4086 31.1837 22.4086C31.1838 22.4086 31.1838 22.4085 31.1838 22.4085C31.1838 22.4085 31.1838 22.4085 31.1838 22.4085C31.1838 22.4085 31.1838 22.4085 31.1838 22.4085C31.1838 22.4085 31.1838 22.4085 31.1838 22.4085C31.1838 22.4085 31.1838 22.4085 31.1838 22.4085C31.1838 22.4085 31.1838 22.4085 31.1838 22.4085C31.1838 22.4085 31.1839 22.4085 31.1839 22.4085C31.1839 22.4085 31.1839 22.4085 31.1839 22.4085C31.1839 22.4085 31.1839 22.4085 31.1839 22.4085C31.1839 22.4085 31.1839 22.4085 31.1839 22.4085C31.1839 22.4085 31.1839 22.4085 31.1839 22.4085C31.1839 22.4085 31.1839 22.4085 31.1839 22.4085C31.1839 22.4085 31.1839 22.4085 31.1839 22.4085C31.1839 22.4085 31.1839 22.4085 31.1839 22.4085C31.1839 22.4085 31.1839 22.4085 31.1839 22.4084C31.1839 22.4084 31.1839 22.4084 31.184 22.4084C31.184 22.4084 31.1841 22.4083 31.1841 22.4082C31.1843 22.408 32.2443 22.4083 32.2455 23.4681C32.2452 23.4685 32.2448 23.4689 32.2447 23.469C32.2447 23.469 32.2446 23.4691 32.2446 23.4691C32.2446 23.4691 32.2446 23.4691 32.2446 23.4691C32.2446 23.4691 32.2446 23.4691 32.2446 23.4691C32.2446 23.4691 32.2445 23.4691 32.2445 23.4691C32.2445 23.4691 32.2445 23.4691 32.2445 23.4691C32.2445 23.4691 32.2445 23.4691 32.2445 23.4691C32.2445 23.4691 32.2445 23.4691 32.2445 23.4691C32.2445 23.4691 32.2445 23.4692 32.2445 23.4692C32.2445 23.4692 32.2445 23.4692 32.2445 23.4692L31.1838 22.4085ZM31.1839 22.4085L29.3162 24.2762L30.3768 25.3368L32.2445 23.4692L31.1839 22.4085ZM29.3162 24.2762C27.3512 26.2411 25.1189 27.5155 23.128 28.0132C21.1201 28.5152 19.4976 28.2051 18.5303 27.2378L17.4697 28.2984C18.9559 29.7847 21.212 30.0383 23.4918 29.4684C25.7884 28.8942 28.2527 27.461 30.3768 25.3368L29.3162 24.2762ZM18.75 27.7699V27.7499H17.25V27.7699H18.75Z" fill="#212121"/>
</svg>
