<svg width="24" height="24" viewBox="0 0 24 24" fill="none" xmlns="http://www.w3.org/2000/svg">
<path d="M2 19.7487L17.0743 4.67451C17.9724 3.77646 19.4284 3.77646 20.3265 4.67451C21.2245 5.57257 21.2245 7.02861 20.3264 7.92666C20.2625 7.99057 20.1949 8.05065 20.124 8.10659L14.2373 12.7468" fill="#F44848"/>
<path d="M11.6253 10.1438L15.7142 14.2327C15.9094 14.428 15.9094 14.7445 15.7142 14.9398C15.7142 14.9398 15.7142 14.9398 15.7142 14.9398L13.8465 16.8075C9.75736 20.8966 4.45351 22.2226 2.00001 19.7691" fill="#F44848"/>
<path d="M1.46967 19.2184C1.17678 19.5113 1.17678 19.9861 1.46967 20.279C1.76256 20.5719 2.23743 20.5719 2.53033 20.279L1.46967 19.2184ZM17.0743 4.67451L16.544 4.14418L16.544 4.14418L17.0743 4.67451ZM20.3265 4.67451L20.8568 4.14418L20.8568 4.14418L20.3265 4.67451ZM20.3264 7.92666L19.7961 7.39633L19.7961 7.39633L20.3264 7.92666ZM20.124 8.10659L19.6597 7.51758L19.6597 7.51758L20.124 8.10659ZM13.773 12.1578C13.4477 12.4142 13.3919 12.8858 13.6483 13.2111C13.9047 13.5364 14.3763 13.5922 14.7016 13.3358L13.773 12.1578ZM12.1556 9.61348C11.8627 9.32059 11.3879 9.32059 11.095 9.61348C10.8021 9.90638 10.8021 10.3813 11.095 10.6741L12.1556 9.61348ZM15.7142 14.2327L15.1839 14.763L15.1839 14.763L15.7142 14.2327ZM13.8465 16.8075L14.3768 17.3378H14.3768L13.8465 16.8075ZM2.53034 19.2388C2.23745 18.9459 1.76257 18.9459 1.46968 19.2388C1.17679 19.5317 1.17679 20.0065 1.46968 20.2994L2.53034 19.2388ZM1.25 19.7709C1.25 20.1851 1.58579 20.5209 2 20.5209C2.41421 20.5209 2.75 20.1851 2.75 19.7709H1.25ZM2.75 19.7509C2.75 19.3367 2.41421 19.0009 2 19.0009C1.58579 19.0009 1.25 19.3367 1.25 19.7509H2.75ZM2.53033 20.279L17.6046 5.20485L16.544 4.14418L1.46967 19.2184L2.53033 20.279ZM17.6046 5.20485C18.2098 4.59969 19.191 4.59969 19.7961 5.20485L20.8568 4.14418C19.6658 2.95324 17.7349 2.95324 16.544 4.14418L17.6046 5.20485ZM19.7961 5.20484C20.4013 5.81001 20.4013 6.79118 19.7961 7.39633L20.8568 8.457C22.0477 7.26605 22.0477 5.33513 20.8568 4.14418L19.7961 5.20484ZM19.7961 7.39633C19.7531 7.4394 19.7075 7.47988 19.6597 7.51758L20.5882 8.6956C20.6824 8.62141 20.772 8.54174 20.8568 8.45699L19.7961 7.39633ZM19.6597 7.51758L13.773 12.1578L14.7016 13.3358L20.5883 8.6956L19.6597 7.51758ZM11.095 10.6741L15.1839 14.763L16.2445 13.7024L12.1556 9.61348L11.095 10.6741ZM15.1839 14.763C15.0862 14.6654 15.0862 14.5071 15.1838 14.4095L16.2445 15.4701C16.7327 14.982 16.7327 14.1905 16.2445 13.7024L15.1839 14.763ZM15.1838 14.4095C15.1838 14.4095 15.1838 14.4095 15.1838 14.4095C15.1838 14.4095 15.1838 14.4095 15.1838 14.4095C15.1838 14.4095 15.1838 14.4095 15.1838 14.4095C15.1838 14.4095 15.1838 14.4095 15.1838 14.4095C15.1838 14.4095 15.1838 14.4095 15.1838 14.4095C15.1838 14.4095 15.1838 14.4095 15.1838 14.4095C15.1838 14.4095 15.1838 14.4096 15.1838 14.4096C15.1837 14.4096 15.1837 14.4096 15.1837 14.4097C15.1836 14.4097 15.1832 14.4101 15.1828 14.4105C15.184 15.4703 16.244 15.4706 16.2442 15.4704C16.2443 15.4703 16.2444 15.4703 16.2444 15.4703C16.2444 15.4702 16.2445 15.4702 16.2445 15.4702C16.2445 15.4702 16.2445 15.4702 16.2445 15.4702C16.2445 15.4702 16.2445 15.4701 16.2445 15.4701C16.2445 15.4701 16.2445 15.4701 16.2445 15.4701C16.2445 15.4701 16.2445 15.4701 16.2445 15.4701C16.2445 15.4701 16.2445 15.4701 16.2445 15.4701C16.2445 15.4701 16.2445 15.4701 16.2445 15.4701C16.2445 15.4701 16.2445 15.4701 16.2445 15.4701C16.2445 15.4701 16.2445 15.4701 16.2445 15.4701C16.2445 15.4701 16.2445 15.4701 16.2445 15.4701C16.2445 15.4701 16.2445 15.4701 16.2445 15.4701C16.2445 15.4701 16.2445 15.4701 16.2445 15.4701C16.2445 15.4701 16.2445 15.4701 16.2445 15.4701C16.2445 15.4701 16.2445 15.4701 16.2445 15.4701C16.2445 15.4701 16.2446 15.4701 16.2446 15.4701C16.2446 15.4701 16.2446 15.47 16.2446 15.47C16.2446 15.47 16.2447 15.4699 16.2448 15.4698C16.245 15.4697 16.2447 14.4096 15.1849 14.4085C15.1845 14.4088 15.1841 14.4092 15.184 14.4093C15.184 14.4093 15.184 14.4094 15.1839 14.4094C15.1839 14.4094 15.1839 14.4094 15.1839 14.4094C15.1839 14.4094 15.1839 14.4094 15.1839 14.4094C15.1839 14.4094 15.1839 14.4094 15.1839 14.4094C15.1839 14.4094 15.1839 14.4095 15.1839 14.4095C15.1839 14.4095 15.1839 14.4095 15.1839 14.4095C15.1839 14.4095 15.1839 14.4095 15.1839 14.4095C15.1839 14.4095 15.1839 14.4095 15.1839 14.4095L16.2445 15.4701C16.2445 15.4701 16.2445 15.4701 16.2445 15.4701C16.2445 15.4701 16.2445 15.4701 16.2445 15.4701C16.2445 15.4701 16.2445 15.4701 16.2445 15.4701C16.2445 15.4701 16.2445 15.4701 16.2445 15.4701C16.2445 15.4701 16.2445 15.4702 16.2445 15.4702C16.2445 15.4702 16.2445 15.4702 16.2445 15.4702C16.2445 15.4702 16.2444 15.4702 16.2444 15.4702C16.2444 15.4702 16.2444 15.4702 16.2444 15.4702C16.2444 15.4702 16.2444 15.4703 16.2443 15.4703C16.2443 15.4704 16.2439 15.4708 16.2435 15.4711C15.1837 15.47 15.1834 14.4099 15.1836 14.4098C15.1836 14.4097 15.1837 14.4096 15.1837 14.4096C15.1838 14.4096 15.1838 14.4095 15.1838 14.4095C15.1838 14.4095 15.1838 14.4095 15.1838 14.4095C15.1838 14.4095 15.1838 14.4095 15.1838 14.4095C15.1838 14.4095 15.1838 14.4095 15.1838 14.4095C15.1838 14.4095 15.1838 14.4095 15.1838 14.4095C15.1838 14.4095 15.1838 14.4095 15.1838 14.4095C15.1838 14.4095 15.1839 14.4095 15.1839 14.4095C15.1839 14.4095 15.1839 14.4095 15.1839 14.4095C15.1839 14.4095 15.1839 14.4095 15.1839 14.4095C15.1839 14.4095 15.1839 14.4095 15.1839 14.4095C15.1839 14.4095 15.1839 14.4095 15.1839 14.4095C15.1839 14.4095 15.1839 14.4095 15.1839 14.4095C15.1839 14.4095 15.1839 14.4095 15.1839 14.4095C15.1839 14.4095 15.1839 14.4094 15.1839 14.4094C15.1839 14.4094 15.1839 14.4094 15.1839 14.4094C15.1839 14.4094 15.1839 14.4094 15.184 14.4093C15.184 14.4093 15.1841 14.4093 15.1841 14.4092C15.1843 14.409 16.2443 14.4093 16.2455 15.4691C16.2452 15.4695 16.2448 15.4699 16.2447 15.4699C16.2447 15.47 16.2446 15.47 16.2446 15.47C16.2446 15.47 16.2446 15.4701 16.2446 15.4701C16.2446 15.4701 16.2446 15.4701 16.2446 15.4701C16.2446 15.4701 16.2445 15.4701 16.2445 15.4701C16.2445 15.4701 16.2445 15.4701 16.2445 15.4701C16.2445 15.4701 16.2445 15.4701 16.2445 15.4701C16.2445 15.4701 16.2445 15.4701 16.2445 15.4701C16.2445 15.4701 16.2445 15.4701 16.2445 15.4701C16.2445 15.4701 16.2445 15.4701 16.2445 15.4701L15.1838 14.4095ZM15.1839 14.4095L13.3162 16.2771L14.3768 17.3378L16.2445 15.4701L15.1839 14.4095ZM13.3162 16.2771C11.3512 18.2421 9.11894 19.5164 7.12799 20.0142C5.12015 20.5161 3.49762 20.206 2.53034 19.2388L1.46968 20.2994C2.9559 21.7856 5.21205 22.0393 7.49179 21.4694C9.78843 20.8952 12.2527 19.462 14.3768 17.3378L13.3162 16.2771ZM2.75 19.7709V19.7509H1.25V19.7709H2.75Z" fill="#F44848"/>
</svg>
