<svg width="200" height="41" viewBox="0 0 200 41" fill="none" xmlns="http://www.w3.org/2000/svg">
<path d="M16.929 11.4766C16.8324 10.4219 16.4025 9.60209 15.6392 9.01722C14.8855 8.42276 13.8082 8.12553 12.4072 8.12553C11.4797 8.12553 10.7067 8.24538 10.0884 8.48508C9.47001 8.72479 9.00623 9.05558 8.69705 9.47745C8.38787 9.88974 8.22845 10.3643 8.21878 10.9013C8.19946 11.3423 8.28642 11.7306 8.47966 12.0662C8.68256 12.4018 8.97242 12.699 9.34923 12.9579C9.73571 13.2072 10.1995 13.4277 10.7406 13.6195C11.2816 13.8113 11.8903 13.979 12.5667 14.1229L15.1174 14.6982C16.586 15.0146 17.8807 15.4364 19.0015 15.9638C20.132 16.4911 21.0789 17.1191 21.8421 17.8478C22.6151 18.5765 23.1997 19.4155 23.5958 20.3647C23.9919 21.3139 24.1948 22.3782 24.2045 23.5575C24.1948 25.4176 23.7214 27.014 22.7842 28.3468C21.847 29.6795 20.4991 30.7006 18.7407 31.4102C16.9918 32.1197 14.8807 32.4744 12.4072 32.4744C9.92412 32.4744 7.75984 32.1053 5.91441 31.367C4.06897 30.6287 2.63417 29.5069 1.61 28.0016C0.585836 26.4963 0.0592593 24.593 0.0302734 22.2919H6.89993C6.9579 23.2411 7.21394 24.0321 7.66805 24.6649C8.12216 25.2978 8.74536 25.7772 9.53764 26.1032C10.3396 26.4291 11.2671 26.5921 12.3203 26.5921C13.2865 26.5921 14.1077 26.4627 14.7841 26.2038C15.4701 25.945 15.9967 25.5854 16.3638 25.1252C16.731 24.6649 16.9194 24.1376 16.929 23.5431C16.9194 22.987 16.7455 22.5124 16.4073 22.1193C16.0691 21.7166 15.5474 21.3714 14.8421 21.0838C14.1464 20.7866 13.2575 20.5133 12.1754 20.264L9.07387 19.5449C6.50379 18.96 4.47961 18.0156 3.00133 16.7116C1.52305 15.3981 0.788737 13.6243 0.798399 11.3903C0.788737 9.56854 1.2815 7.97212 2.27668 6.60103C3.27186 5.22994 4.64869 4.16087 6.40717 3.39382C8.16564 2.62678 10.1705 2.24325 12.4217 2.24325C14.7213 2.24325 16.7165 2.63157 18.4073 3.4082C20.1078 4.17525 21.4267 5.25391 22.3639 6.64418C23.3011 8.03445 23.7794 9.64524 23.7987 11.4766H16.929Z" fill="#F4F4F4"/>
<path d="M36.5867 32.5176C34.2485 32.5176 32.2388 32.043 30.5576 31.0937C28.8861 30.1349 27.5962 28.8022 26.688 27.0955C25.7894 25.3793 25.3402 23.3897 25.3402 21.127C25.3402 18.8546 25.7894 16.8651 26.688 15.1584C27.5962 13.4421 28.8861 12.1094 30.5576 11.1602C32.2388 10.2013 34.2485 9.72195 36.5867 9.72195C38.9249 9.72195 40.9297 10.2013 42.6013 11.1602C44.2824 12.1094 45.5723 13.4421 46.4709 15.1584C47.3791 16.8651 47.8332 18.8546 47.8332 21.127C47.8332 23.3897 47.3791 25.3793 46.4709 27.0955C45.5723 28.8022 44.2824 30.1349 42.6013 31.0937C40.9297 32.043 38.9249 32.5176 36.5867 32.5176ZM36.6302 27.2106C37.4804 27.2106 38.2002 26.9517 38.7896 26.4339C39.379 25.9162 39.8283 25.1971 40.1375 24.2766C40.4563 23.3562 40.6157 22.2919 40.6157 21.0838C40.6157 19.8565 40.4563 18.7827 40.1375 17.8622C39.8283 16.9418 39.379 16.2227 38.7896 15.7049C38.2002 15.1871 37.4804 14.9283 36.6302 14.9283C35.7509 14.9283 35.007 15.1871 34.3983 15.7049C33.7992 16.2227 33.3403 16.9418 33.0214 17.8622C32.7122 18.7827 32.5576 19.8565 32.5576 21.0838C32.5576 22.2919 32.7122 23.3562 33.0214 24.2766C33.3403 25.1971 33.7992 25.9162 34.3983 26.4339C35.007 26.9517 35.7509 27.2106 36.6302 27.2106Z" fill="#F4F4F4"/>
<path d="M60.2226 32.5176C57.8748 32.5176 55.8603 32.0382 54.1791 31.0794C52.5076 30.1206 51.2225 28.7878 50.324 27.0811C49.4254 25.3649 48.9761 23.3801 48.9761 21.127C48.9761 18.8642 49.4254 16.8794 50.324 15.1728C51.2322 13.4565 52.5221 12.119 54.1936 11.1602C55.8748 10.2013 57.8796 9.72195 60.2081 9.72195C62.2661 9.72195 64.0584 10.0911 65.585 10.8294C67.1213 11.5676 68.3194 12.6127 69.1793 13.9647C70.0489 15.307 70.5078 16.8842 70.5561 18.6964H63.9328C63.7976 17.565 63.4111 16.6781 62.7734 16.0357C62.1454 15.3933 61.3241 15.0721 60.3096 15.0721C59.4883 15.0721 58.7685 15.3022 58.1502 15.7624C57.5318 16.2131 57.0487 16.8842 56.7009 17.7759C56.3627 18.658 56.1936 19.7511 56.1936 21.055C56.1936 22.359 56.3627 23.4616 56.7009 24.3629C57.0487 25.2546 57.5318 25.9306 58.1502 26.3908C58.7685 26.8414 59.4883 27.0668 60.3096 27.0668C60.9666 27.0668 61.5463 26.9277 62.0488 26.6497C62.5608 26.3716 62.9811 25.9641 63.3096 25.4272C63.6381 24.8807 63.8459 24.2191 63.9328 23.4425H70.5561C70.4885 25.2642 70.0295 26.8558 69.1793 28.2173C68.3387 29.5788 67.1551 30.6383 65.6285 31.3958C64.1116 32.1436 62.3096 32.5176 60.2226 32.5176Z" fill="#F4F4F4"/>
<path d="M72.5505 32.1005V10.0096H79.6375V32.1005H72.5505ZM76.1012 7.43519C75.1061 7.43519 74.251 7.1092 73.536 6.45721C72.821 5.79563 72.4635 4.99982 72.4635 4.06978C72.4635 3.14932 72.821 2.3631 73.536 1.71112C74.251 1.04954 75.1061 0.71875 76.1012 0.71875C77.1061 0.71875 77.9612 1.04954 78.6665 1.71112C79.3815 2.3631 79.739 3.14932 79.739 4.06978C79.739 4.99982 79.3815 5.79563 78.6665 6.45721C77.9612 7.1092 77.1061 7.43519 76.1012 7.43519Z" fill="#F4F4F4"/>
<path d="M92.9074 32.5176C90.5692 32.5176 88.5595 32.043 86.8783 31.0937C85.2068 30.1349 83.917 28.8022 83.0087 27.0955C82.1102 25.3793 81.6609 23.3897 81.6609 21.127C81.6609 18.8546 82.1102 16.8651 83.0087 15.1584C83.917 13.4421 85.2068 12.1094 86.8783 11.1602C88.5595 10.2013 90.5692 9.72195 92.9074 9.72195C95.2456 9.72195 97.2505 10.2013 98.922 11.1602C100.603 12.1094 101.893 13.4421 102.792 15.1584C103.7 16.8651 104.154 18.8546 104.154 21.127C104.154 23.3897 103.7 25.3793 102.792 27.0955C101.893 28.8022 100.603 30.1349 98.922 31.0937C97.2505 32.043 95.2456 32.5176 92.9074 32.5176ZM92.9509 27.2106C93.8011 27.2106 94.521 26.9517 95.1103 26.4339C95.6997 25.9162 96.149 25.1971 96.4582 24.2766C96.777 23.3562 96.9364 22.2919 96.9364 21.0838C96.9364 19.8565 96.777 18.7827 96.4582 17.8622C96.149 16.9418 95.6997 16.2227 95.1103 15.7049C94.521 15.1871 93.8011 14.9283 92.9509 14.9283C92.0716 14.9283 91.3277 15.1871 90.719 15.7049C90.1199 16.2227 89.661 16.9418 89.3421 17.8622C89.033 18.7827 88.8784 19.8565 88.8784 21.0838C88.8784 22.2919 89.033 23.3562 89.3421 24.2766C89.661 25.1971 90.1199 25.9162 90.719 26.4339C91.3277 26.9517 92.0716 27.2106 92.9509 27.2106Z" fill="#F4F4F4"/>
<path d="M106.152 40.3846V10.0096H113.167V13.7921H113.384C113.674 13.1209 114.084 12.4737 114.616 11.8505C115.157 11.2273 115.843 10.7191 116.674 10.326C117.514 9.9233 118.519 9.72195 119.688 9.72195C121.234 9.72195 122.679 10.1246 124.022 10.93C125.374 11.7354 126.466 12.9771 127.297 14.655C128.128 16.3329 128.544 18.4711 128.544 21.0694C128.544 23.5719 128.143 25.6669 127.341 27.3544C126.548 29.0419 125.476 30.3075 124.123 31.1513C122.78 31.995 121.287 32.4169 119.645 32.4169C118.524 32.4169 117.553 32.2347 116.732 31.8704C115.911 31.506 115.22 31.0266 114.659 30.4322C114.109 29.8377 113.683 29.2001 113.384 28.5194H113.239V40.3846H106.152ZM113.094 21.055C113.094 22.244 113.253 23.2795 113.572 24.1616C113.901 25.0437 114.369 25.7292 114.978 26.2182C115.596 26.6976 116.336 26.9373 117.196 26.9373C118.065 26.9373 118.804 26.6976 119.413 26.2182C120.022 25.7292 120.481 25.0437 120.79 24.1616C121.109 23.2795 121.268 22.244 121.268 21.055C121.268 19.8661 121.109 18.8354 120.79 17.9629C120.481 17.0904 120.022 16.4144 119.413 15.935C118.814 15.4556 118.075 15.2159 117.196 15.2159C116.326 15.2159 115.587 15.4508 114.978 15.9206C114.369 16.3904 113.901 17.0616 113.572 17.9341C113.253 18.8066 113.094 19.8469 113.094 21.055Z" fill="#F4F4F4"/>
<path d="M136.9 32.4744C135.48 32.4744 134.219 32.2395 133.118 31.7697C132.026 31.2903 131.161 30.5712 130.523 29.6124C129.895 28.644 129.581 27.4311 129.581 25.9737C129.581 24.7464 129.799 23.7109 130.234 22.8672C130.668 22.0234 131.267 21.3379 132.031 20.8105C132.794 20.2832 133.673 19.8853 134.668 19.6168C135.664 19.3388 136.726 19.1518 137.857 19.0559C139.123 18.9409 140.142 18.821 140.915 18.6964C141.688 18.5621 142.248 18.3752 142.596 18.1355C142.954 17.8862 143.132 17.5362 143.132 17.0856V17.0137C143.132 16.2754 142.876 15.7049 142.364 15.3022C141.852 14.8995 141.161 14.6982 140.292 14.6982C139.354 14.6982 138.601 14.8995 138.031 15.3022C137.461 15.7049 137.098 16.261 136.944 16.9705L130.407 16.7404C130.601 15.3981 131.098 14.1996 131.9 13.1449C132.712 12.0806 133.823 11.2464 135.234 10.6424C136.654 10.0288 138.359 9.72195 140.35 9.72195C141.77 9.72195 143.079 9.88974 144.277 10.2253C145.475 10.5513 146.519 11.0307 147.408 11.6635C148.297 12.2868 148.983 13.0538 149.466 13.9647C149.958 14.8755 150.205 15.9158 150.205 17.0856V32.1005H143.538V29.0227H143.364C142.968 29.7706 142.461 30.4034 141.842 30.9212C141.234 31.4389 140.514 31.8272 139.683 32.0861C138.862 32.345 137.934 32.4744 136.9 32.4744ZM139.089 27.8722C139.852 27.8722 140.538 27.7187 141.147 27.4119C141.765 27.1051 142.258 26.6832 142.625 26.1463C142.992 25.5998 143.176 24.967 143.176 24.2479V22.1481C142.973 22.2535 142.726 22.3494 142.437 22.4357C142.156 22.522 141.847 22.6035 141.509 22.6802C141.171 22.7569 140.823 22.824 140.466 22.8816C140.108 22.9391 139.765 22.9918 139.437 23.0398C138.77 23.1452 138.2 23.3082 137.726 23.5288C137.263 23.7493 136.905 24.0369 136.654 24.3917C136.412 24.7369 136.292 25.1491 136.292 25.6285C136.292 26.3572 136.552 26.9133 137.074 27.2969C137.606 27.6804 138.277 27.8722 139.089 27.8722Z" fill="#F4F4F4"/>
<path d="M165.471 10.0096V15.1871H151.427V10.0096H165.471ZM154.37 4.71697H161.457V25.1539C161.457 25.5854 161.524 25.9354 161.659 26.2038C161.804 26.4627 162.012 26.6497 162.283 26.7647C162.553 26.8702 162.877 26.9229 163.254 26.9229C163.524 26.9229 163.809 26.899 164.109 26.851C164.418 26.7935 164.65 26.7456 164.804 26.7072L165.877 31.7841C165.539 31.88 165.06 31.9998 164.442 32.1436C163.833 32.2875 163.104 32.3785 162.254 32.4169C160.592 32.4936 159.167 32.3018 157.978 31.8416C156.799 31.3718 155.896 30.6431 155.268 29.6555C154.65 28.668 154.35 27.4263 154.37 25.9306V4.71697Z" fill="#F4F4F4"/>
<path d="M175.02 19.5018V32.1005H167.933V2.64595H174.788V14.0653H175.034C175.537 12.7038 176.358 11.6396 177.498 10.8725C178.648 10.1055 180.054 9.72195 181.716 9.72195C183.281 9.72195 184.643 10.0671 185.803 10.7575C186.962 11.4382 187.861 12.4018 188.498 13.6483C189.146 14.8947 189.465 16.3521 189.455 18.0204V32.1005H182.368V19.4011C182.377 18.1738 182.068 17.215 181.44 16.5247C180.812 15.8343 179.928 15.4892 178.788 15.4892C178.044 15.4892 177.387 15.6522 176.817 15.9782C176.257 16.2946 175.817 16.75 175.498 17.3445C175.189 17.9389 175.03 18.658 175.02 19.5018Z" fill="#F4F4F4"/>
<path d="M196.232 32.5176C195.188 32.5176 194.295 32.1532 193.551 31.4245C192.816 30.6958 192.454 29.8137 192.464 28.7782C192.454 27.7619 192.816 26.8942 193.551 26.1751C194.295 25.4464 195.188 25.082 196.232 25.082C197.217 25.082 198.087 25.4464 198.841 26.1751C199.604 26.8942 199.99 27.7619 200 28.7782C199.99 29.4686 199.807 30.0966 199.449 30.6623C199.102 31.228 198.643 31.6786 198.073 32.0142C197.512 32.3498 196.899 32.5176 196.232 32.5176Z" fill="#F4F4F4"/>
</svg>
