<svg width="1440" height="56" viewBox="0 0 1440 56" fill="none" xmlns="http://www.w3.org/2000/svg">
<rect width="1440" height="56" fill="white"/>
<path fill-rule="evenodd" clip-rule="evenodd" d="M274.667 8C274.949 8.00491 275.229 8.03287 275.506 8.08389C275.852 8.26604 276.206 8.43382 276.569 8.58725C277.439 8.83221 278.316 9.05592 279.197 9.25839C280.867 9.79501 282.433 10.5407 283.895 11.4955C286.448 13.1149 288.732 15.063 290.747 17.34C292.71 19.8123 293.977 22.6087 294.55 25.7293C294.767 28.5799 294.543 31.395 293.879 34.1745C293.698 34.7598 293.456 35.3191 293.152 35.8523C291.773 38.1259 289.974 39.9995 287.755 41.4732C286.804 42.0977 285.853 42.7222 284.902 43.3468C284.884 43.5518 284.865 43.7569 284.846 43.962C284.881 44.8193 284.909 45.6768 284.93 46.5347C284.957 47.6253 284.147 45.7469 284.371 43.4027C282.916 43.8999 281.453 44.3753 279.98 44.8289C278.441 45.3114 276.875 45.4418 275.282 45.2204C274.749 44.9963 274.199 44.8377 273.633 44.745C273.518 44.7966 273.397 44.8152 273.269 44.8009C273.284 45.4726 273.293 46.1437 273.297 46.8143C273.273 47.0588 273.236 47.3012 273.185 47.5414C273.145 47.6341 273.079 47.6621 272.989 47.6253C272.811 47.4064 272.708 47.1547 272.682 46.8702C272.649 46.357 272.659 45.8443 272.71 45.3322C272.709 45.0173 272.662 44.7097 272.57 44.4094C271.81 43.9501 271.036 43.512 270.249 43.0951C268.964 42.2395 267.836 41.2049 266.865 39.991C265.949 38.8324 265.054 37.6579 264.181 36.4676C263.173 34.6933 262.698 32.7824 262.755 30.7349C262.769 28.5768 263.225 26.5168 264.125 24.5548C264.804 23.0828 265.625 21.7032 266.586 20.4161C267.025 19.9576 267.482 19.5195 267.956 19.1018C269.307 18.0301 270.705 17.0234 272.151 16.0817C272.622 15.8457 273.107 15.6407 273.605 15.4664C273.778 15.2324 273.964 15.0087 274.164 14.7953C274.439 14.7119 274.718 14.6932 275.003 14.7394C275.049 14.786 275.096 14.8326 275.143 14.8792C275.199 15.1215 275.255 15.3639 275.31 15.6063C275.629 15.7347 275.936 15.8838 276.233 16.0537C276.339 16.6879 276.078 17.1073 275.45 17.3121C274.275 17.4801 273.194 17.8902 272.206 18.5425C270.645 19.6563 269.181 20.896 267.816 22.2617C266.892 23.4761 266.202 24.8184 265.747 26.2886C264.173 31.0666 265.105 35.2798 268.543 38.9284C268.935 39.3199 269.326 39.7114 269.718 40.1029C269.809 39.8116 269.865 39.5134 269.885 39.208C269.859 37.325 269.868 35.4421 269.913 33.5593C269.883 32.6409 269.818 31.7273 269.718 30.8188C269.795 30.723 269.888 30.6484 269.997 30.5951C270.035 30.2781 270.035 29.9612 269.997 29.6443C269.772 29.3711 269.632 29.0635 269.578 28.7215C269.801 27.4348 270.51 26.5213 271.703 25.981C272.568 25.6477 273.463 25.4799 274.388 25.4776C274.637 25.7909 274.898 26.0892 275.171 26.3725C275.391 26.428 275.615 26.4653 275.842 26.4843C275.644 27.2688 275.178 27.8187 274.444 28.1342C274.115 28.035 273.779 27.979 273.437 27.9664C272.95 28.0134 272.465 28.0786 271.983 28.1622C271.558 28.5862 271.176 29.043 270.836 29.5324C270.803 32.3535 270.654 35.1686 270.389 37.9776C270.326 38.7226 270.307 39.4683 270.333 40.2148C272.078 42.0798 274.231 43.0399 276.793 43.0951C276.749 42.9606 276.721 42.8207 276.709 42.6756C276.69 41.613 276.671 40.5503 276.653 39.4877C276.642 39.0437 276.54 38.6242 276.345 38.2293C275.903 38.0594 275.614 38.1992 275.478 38.6488C275.469 38.9303 275.441 39.2099 275.394 39.4877C275.282 39.0947 275.161 38.7032 275.031 38.3132C274.833 38.1629 274.619 38.1256 274.388 38.2013C274.388 39.1148 274.388 40.0284 274.388 40.9418C274.332 40.9418 274.276 40.9418 274.22 40.9418C274.03 40.2119 274.011 39.4755 274.164 38.7327C274.138 38.4766 274.091 38.2249 274.024 37.9776C273.844 38.2864 273.751 38.6219 273.744 38.9843C273.761 39.8229 273.761 40.6618 273.744 41.5011C273.684 41.5447 273.619 41.5354 273.549 41.4732C273.222 41.212 273.073 40.8671 273.101 40.4385C273.147 39.6734 273.203 38.9091 273.269 38.1454C273.29 37.6738 273.169 37.245 272.906 36.8591C272.526 36.5355 272.209 36.1626 271.955 35.7405C271.843 35.4123 271.871 35.0954 272.039 34.7897C272.259 34.8628 272.464 34.9653 272.654 35.0973C273.018 35.13 273.372 35.2046 273.717 35.321C274.204 35.7154 274.707 36.0883 275.227 36.4396C275.658 36.5393 276.096 36.5859 276.541 36.5794C277.578 36.5496 278.613 36.4843 279.645 36.3837C280.707 36.2346 281.695 35.8804 282.609 35.321C283.154 34.9621 283.667 34.5613 284.147 34.1186C284.273 34.1542 284.394 34.2008 284.511 34.2584C284.715 34.4353 284.939 34.5844 285.182 34.7058C285.272 34.7461 285.356 34.7368 285.433 34.6778C285.352 33.9844 285.305 33.2853 285.294 32.5805C285.346 31.4529 285.355 30.325 285.322 29.1969C285.283 28.7248 285.209 28.2587 285.098 27.7987C285.054 27.6988 284.989 27.6149 284.902 27.547C284.306 27.2673 283.709 26.9877 283.112 26.7081C282.864 26.5715 282.65 26.3944 282.469 26.1767C282.25 26.4142 282.044 26.6565 281.854 26.9038C281.647 26.7243 281.432 26.5565 281.211 26.4004C280.853 26.4883 280.638 26.712 280.568 27.0716C280.558 27.5202 280.53 27.9676 280.484 28.4139C280.465 28.4045 280.447 28.3952 280.428 28.3859C280.293 28.0273 280.237 27.6545 280.26 27.2673C280.267 26.5935 280.351 25.9317 280.512 25.2819C280.947 24.8825 281.441 24.5749 281.994 24.3591C282.655 24.1387 283.308 23.8964 283.951 23.632C284.045 23.5947 284.138 23.5947 284.231 23.632C285.662 24.5405 286.734 25.7616 287.447 27.2953C287.447 27.4828 287.354 27.6133 287.167 27.6868C287.099 27.6666 287.034 27.6386 286.972 27.6029C286.774 27.3865 286.559 27.1908 286.328 27.0157C286.277 27.062 286.24 27.1179 286.216 27.1834C286.119 27.776 286.063 28.3725 286.049 28.9732C286.057 30.7628 286.057 32.5525 286.049 34.3423C286.041 34.8545 285.976 35.3578 285.853 35.8523C285.64 35.6503 285.481 35.4079 285.378 35.1253C284.386 36.3214 283.184 37.2442 281.77 37.8937C281.521 38.1735 281.484 38.4811 281.658 38.8166C281.265 38.9802 280.854 39.0734 280.428 39.0962C279.79 39.0003 279.156 38.8791 278.526 38.7327C278.154 38.6929 277.781 38.6649 277.408 38.6488C277.407 39.4974 277.388 40.3456 277.352 41.1935C277.347 41.8428 277.403 42.486 277.52 43.123C279.783 43.1443 281.946 42.6876 284.007 41.7528C285.795 40.8589 287.548 39.9081 289.265 38.9004C290.319 37.5466 291.298 36.139 292.201 34.6778C293.572 32.2367 293.964 29.6454 293.375 26.9038C292.854 23.8846 291.586 21.2374 289.572 18.962C288.687 17.9273 287.727 16.9672 286.692 16.0817C286.054 15.6696 285.383 15.3154 284.678 15.019C282.963 14.2919 281.248 13.5649 279.533 12.8378C277.416 12.0789 275.235 11.6501 272.989 11.5515C272.312 11.5091 271.659 11.36 271.032 11.104C270.678 10.8338 270.305 10.5915 269.913 10.377C269.615 10.321 269.317 10.2651 269.019 10.2092C268.682 10.1512 268.421 9.98343 268.236 9.70582C268.537 9.10701 269.022 8.7528 269.69 8.64318C271.194 8.42732 272.685 8.5019 274.164 8.86689C277.293 9.72342 280.332 10.8233 283.28 12.1667C283.728 12.4649 284.175 12.7632 284.623 13.0615C284.866 13.2211 285.127 13.3143 285.406 13.3412C284.278 12.2829 282.992 11.4626 281.546 10.8803C280.408 10.4261 279.252 10.0159 278.079 9.64989C276.623 9.25764 275.187 8.81021 273.772 8.30761C273.847 8.23304 273.922 8.15846 273.996 8.08389C274.23 8.07404 274.454 8.04607 274.667 8Z" fill="#F44848"/>
<path d="M312.067 25.8338C312.024 25.3651 311.834 25.0007 311.498 24.7408C311.165 24.4766 310.69 24.3445 310.072 24.3445C309.663 24.3445 309.322 24.3977 309.05 24.5043C308.777 24.6108 308.572 24.7578 308.436 24.9453C308.3 25.1285 308.229 25.3395 308.225 25.5781C308.217 25.7741 308.255 25.9467 308.34 26.0959C308.43 26.245 308.557 26.3771 308.724 26.4922C308.894 26.603 309.099 26.701 309.337 26.7862C309.576 26.8714 309.844 26.946 310.143 27.0099L311.268 27.2656C311.915 27.4062 312.486 27.5937 312.981 27.8281C313.479 28.0625 313.897 28.3416 314.234 28.6655C314.574 28.9893 314.832 29.3622 315.007 29.7841C315.182 30.206 315.271 30.679 315.275 31.2031C315.271 32.0298 315.062 32.7393 314.649 33.3317C314.236 33.924 313.641 34.3778 312.866 34.6932C312.094 35.0085 311.163 35.1662 310.072 35.1662C308.977 35.1662 308.023 35.0021 307.209 34.674C306.395 34.3459 305.762 33.8473 305.31 33.1783C304.859 32.5092 304.626 31.6633 304.614 30.6406H307.643C307.669 31.0625 307.782 31.4141 307.982 31.6953C308.182 31.9766 308.457 32.1896 308.807 32.3345C309.16 32.4794 309.569 32.5518 310.034 32.5518C310.46 32.5518 310.822 32.4943 311.121 32.3793C311.423 32.2642 311.655 32.1044 311.817 31.8999C311.979 31.6953 312.062 31.4609 312.067 31.1967C312.062 30.9496 311.986 30.7386 311.837 30.5639C311.687 30.3849 311.457 30.2315 311.146 30.1037C310.839 29.9716 310.447 29.8501 309.97 29.7393L308.602 29.4197C307.469 29.1598 306.576 28.7401 305.924 28.1605C305.272 27.5767 304.948 26.7883 304.952 25.7955C304.948 24.9858 305.165 24.2763 305.604 23.6669C306.043 23.0575 306.65 22.5824 307.426 22.2415C308.202 21.9006 309.086 21.7301 310.079 21.7301C311.093 21.7301 311.973 21.9027 312.719 22.2479C313.469 22.5888 314.05 23.0682 314.464 23.6861C314.877 24.304 315.088 25.0199 315.096 25.8338H312.067Z" fill="#212121"/>
<path d="M320.737 35.1854C319.705 35.1854 318.819 34.9744 318.077 34.5526C317.34 34.1264 316.771 33.5341 316.371 32.7756C315.974 32.0128 315.776 31.1285 315.776 30.1229C315.776 29.1129 315.974 28.2287 316.371 27.4702C316.771 26.7074 317.34 26.1151 318.077 25.6932C318.819 25.267 319.705 25.054 320.737 25.054C321.768 25.054 322.652 25.267 323.389 25.6932C324.131 26.1151 324.7 26.7074 325.096 27.4702C325.497 28.2287 325.697 29.1129 325.697 30.1229C325.697 31.1285 325.497 32.0128 325.096 32.7756C324.7 33.5341 324.131 34.1264 323.389 34.5526C322.652 34.9744 321.768 35.1854 320.737 35.1854ZM320.756 32.8267C321.131 32.8267 321.448 32.7116 321.708 32.4815C321.968 32.2514 322.166 31.9318 322.303 31.5227C322.443 31.1136 322.514 30.6406 322.514 30.1037C322.514 29.5582 322.443 29.081 322.303 28.6719C322.166 28.2628 321.968 27.9432 321.708 27.7131C321.448 27.4829 321.131 27.3679 320.756 27.3679C320.368 27.3679 320.04 27.4829 319.771 27.7131C319.507 27.9432 319.305 28.2628 319.164 28.6719C319.028 29.081 318.96 29.5582 318.96 30.1037C318.96 30.6406 319.028 31.1136 319.164 31.5227C319.305 31.9318 319.507 32.2514 319.771 32.4815C320.04 32.7116 320.368 32.8267 320.756 32.8267Z" fill="#212121"/>
<path d="M331.161 35.1854C330.126 35.1854 329.237 34.9723 328.496 34.5462C327.758 34.12 327.192 33.5277 326.795 32.7692C326.399 32.0064 326.201 31.1243 326.201 30.1229C326.201 29.1172 326.399 28.2351 326.795 27.4766C327.196 26.7138 327.765 26.1193 328.502 25.6932C329.243 25.267 330.128 25.054 331.155 25.054C332.062 25.054 332.853 25.218 333.526 25.5462C334.204 25.8743 334.732 26.3388 335.111 26.9396C335.495 27.5362 335.697 28.2372 335.719 29.0426H332.797C332.738 28.5398 332.567 28.1456 332.286 27.8601C332.009 27.5746 331.647 27.4318 331.199 27.4318C330.837 27.4318 330.52 27.5341 330.247 27.7386C329.974 27.9389 329.761 28.2372 329.608 28.6335C329.459 29.0256 329.384 29.5114 329.384 30.0909C329.384 30.6704 329.459 31.1605 329.608 31.5611C329.761 31.9574 329.974 32.2578 330.247 32.4624C330.52 32.6626 330.837 32.7628 331.199 32.7628C331.489 32.7628 331.745 32.701 331.966 32.5774C332.192 32.4538 332.378 32.2727 332.523 32.0341C332.667 31.7912 332.759 31.4972 332.797 31.152H335.719C335.689 31.9616 335.486 32.669 335.111 33.2741C334.741 33.8793 334.219 34.3501 333.545 34.6868C332.876 35.0192 332.082 35.1854 331.161 35.1854Z" fill="#212121"/>
<path d="M336.598 35V25.1818H339.724V35H336.598ZM338.164 24.0376C337.725 24.0376 337.348 23.8928 337.033 23.603C336.718 23.3089 336.56 22.9553 336.56 22.5419C336.56 22.1328 336.718 21.7834 337.033 21.4936C337.348 21.1996 337.725 21.0526 338.164 21.0526C338.607 21.0526 338.985 21.1996 339.296 21.4936C339.611 21.7834 339.769 22.1328 339.769 22.5419C339.769 22.9553 339.611 23.3089 339.296 23.603C338.985 23.8928 338.607 24.0376 338.164 24.0376Z" fill="#212121"/>
<path d="M345.577 35.1854C344.545 35.1854 343.659 34.9744 342.917 34.5526C342.18 34.1264 341.611 33.5341 341.211 32.7756C340.814 32.0128 340.616 31.1285 340.616 30.1229C340.616 29.1129 340.814 28.2287 341.211 27.4702C341.611 26.7074 342.18 26.1151 342.917 25.6932C343.659 25.267 344.545 25.054 345.577 25.054C346.608 25.054 347.492 25.267 348.229 25.6932C348.971 26.1151 349.54 26.7074 349.936 27.4702C350.337 28.2287 350.537 29.1129 350.537 30.1229C350.537 31.1285 350.337 32.0128 349.936 32.7756C349.54 33.5341 348.971 34.1264 348.229 34.5526C347.492 34.9744 346.608 35.1854 345.577 35.1854ZM345.596 32.8267C345.971 32.8267 346.288 32.7116 346.548 32.4815C346.808 32.2514 347.006 31.9318 347.143 31.5227C347.283 31.1136 347.354 30.6406 347.354 30.1037C347.354 29.5582 347.283 29.081 347.143 28.6719C347.006 28.2628 346.808 27.9432 346.548 27.7131C346.288 27.4829 345.971 27.3679 345.596 27.3679C345.208 27.3679 344.88 27.4829 344.611 27.7131C344.347 27.9432 344.145 28.2628 344.004 28.6719C343.868 29.081 343.8 29.5582 343.8 30.1037C343.8 30.6406 343.868 31.1136 344.004 31.5227C344.145 31.9318 344.347 32.2514 344.611 32.4815C344.88 32.7116 345.208 32.8267 345.596 32.8267Z" fill="#212121"/>
<path d="M351.418 38.6818V25.1818H354.512V26.8629H354.608C354.735 26.5646 354.917 26.277 355.151 26C355.39 25.723 355.692 25.4972 356.059 25.3224C356.429 25.1435 356.873 25.054 357.388 25.054C358.07 25.054 358.707 25.2329 359.299 25.5909C359.896 25.9489 360.378 26.5007 360.744 27.2464C361.11 27.9922 361.294 28.9425 361.294 30.0973C361.294 31.2095 361.117 32.1406 360.763 32.8906C360.414 33.6406 359.941 34.2031 359.344 34.5781C358.752 34.9531 358.093 35.1406 357.369 35.1406C356.875 35.1406 356.446 35.0597 356.084 34.8977C355.722 34.7358 355.417 34.5227 355.17 34.2585C354.927 33.9943 354.74 33.7109 354.608 33.4084H354.544V38.6818H351.418ZM354.48 30.0909C354.48 30.6193 354.55 31.0795 354.691 31.4716C354.836 31.8636 355.042 32.1683 355.311 32.3856C355.583 32.5987 355.909 32.7053 356.289 32.7053C356.672 32.7053 356.998 32.5987 357.267 32.3856C357.535 32.1683 357.738 31.8636 357.874 31.4716C358.015 31.0795 358.085 30.6193 358.085 30.0909C358.085 29.5625 358.015 29.1044 357.874 28.7166C357.738 28.3288 357.535 28.0284 357.267 27.8153C357.003 27.6023 356.677 27.4957 356.289 27.4957C355.905 27.4957 355.579 27.6001 355.311 27.8089C355.042 28.0178 354.836 28.316 354.691 28.7038C354.55 29.0916 354.48 29.554 354.48 30.0909Z" fill="#212121"/>
<path d="M364.979 35.1662C364.353 35.1662 363.797 35.0618 363.311 34.853C362.83 34.6399 362.448 34.3203 362.167 33.8942C361.89 33.4638 361.751 32.9247 361.751 32.277C361.751 31.7315 361.847 31.2713 362.039 30.8963C362.231 30.5213 362.495 30.2166 362.832 29.9822C363.168 29.7479 363.556 29.571 363.995 29.4517C364.434 29.3281 364.903 29.245 365.401 29.2024C365.96 29.1513 366.409 29.098 366.75 29.0426C367.091 28.9829 367.338 28.8999 367.492 28.7933C367.649 28.6825 367.728 28.527 367.728 28.3267V28.2947C367.728 27.9666 367.615 27.7131 367.389 27.5341C367.163 27.3551 366.859 27.2656 366.475 27.2656C366.062 27.2656 365.729 27.3551 365.478 27.5341C365.227 27.7131 365.067 27.9602 364.999 28.2756L362.116 28.1733C362.201 27.5767 362.42 27.044 362.774 26.5753C363.132 26.1023 363.622 25.7315 364.244 25.4631C364.871 25.1903 365.623 25.054 366.501 25.054C367.127 25.054 367.705 25.1285 368.233 25.2777C368.761 25.4226 369.222 25.6356 369.614 25.9169C370.006 26.1939 370.308 26.5348 370.521 26.9396C370.739 27.3445 370.847 27.8068 370.847 28.3267V35H367.907V33.6321H367.83C367.656 33.9645 367.432 34.2457 367.159 34.4758C366.891 34.706 366.573 34.8785 366.207 34.9936C365.844 35.1087 365.435 35.1662 364.979 35.1662ZM365.945 33.1207C366.281 33.1207 366.584 33.0526 366.852 32.9162C367.125 32.7798 367.342 32.5923 367.504 32.3537C367.666 32.1108 367.747 31.8295 367.747 31.5099V30.5767C367.658 30.6236 367.549 30.6662 367.421 30.7045C367.298 30.7429 367.161 30.7791 367.012 30.8132C366.863 30.8473 366.71 30.8771 366.552 30.9027C366.394 30.9283 366.243 30.9517 366.098 30.973C365.804 31.0199 365.553 31.0923 365.344 31.1903C365.139 31.2883 364.982 31.4162 364.871 31.5739C364.764 31.7273 364.711 31.9105 364.711 32.1236C364.711 32.4474 364.826 32.6946 365.056 32.8651C365.291 33.0355 365.587 33.1207 365.945 33.1207Z" fill="#212121"/>
<path d="M377.58 25.1818V27.4829H371.387V25.1818H377.58ZM372.684 22.8295H375.81V31.9126C375.81 32.1044 375.84 32.2599 375.899 32.3793C375.963 32.4943 376.055 32.5774 376.174 32.6285C376.294 32.6754 376.436 32.6989 376.602 32.6989C376.722 32.6989 376.847 32.6882 376.98 32.6669C377.116 32.6413 377.218 32.62 377.286 32.603L377.759 34.8594C377.61 34.902 377.399 34.9553 377.127 35.0192C376.858 35.0831 376.536 35.1236 376.161 35.1406C375.428 35.1747 374.8 35.0895 374.276 34.8849C373.756 34.6761 373.357 34.3523 373.08 33.9133C372.808 33.4744 372.676 32.9226 372.684 32.2578V22.8295Z" fill="#212121"/>
<path d="M381.792 29.4006V35H378.666V21.9091H381.69V26.9844H381.798C382.02 26.3793 382.382 25.9062 382.885 25.5653C383.392 25.2244 384.012 25.054 384.745 25.054C385.435 25.054 386.036 25.2074 386.548 25.5142C387.059 25.8168 387.455 26.245 387.737 26.799C388.022 27.353 388.163 28.0007 388.158 28.7422V35H385.033V29.3558C385.037 28.8104 384.901 28.3842 384.624 28.0774C384.347 27.7706 383.957 27.6172 383.454 27.6172C383.126 27.6172 382.836 27.6896 382.585 27.8345C382.337 27.9751 382.143 28.1776 382.003 28.4418C381.866 28.706 381.796 29.0256 381.792 29.4006Z" fill="#212121"/>
<path d="M391.147 35.1854C390.687 35.1854 390.293 35.0234 389.965 34.6996C389.641 34.3757 389.481 33.9837 389.485 33.5234C389.481 33.0717 389.641 32.6861 389.965 32.3665C390.293 32.0426 390.687 31.8807 391.147 31.8807C391.582 31.8807 391.966 32.0426 392.298 32.3665C392.635 32.6861 392.805 33.0717 392.809 33.5234C392.805 33.8303 392.724 34.1094 392.566 34.3608C392.413 34.6122 392.211 34.8125 391.959 34.9616C391.712 35.1108 391.441 35.1854 391.147 35.1854Z" fill="#212121"/>
<path d="M1098.41 33V22.8182H1105.04V24.3643H1100.26V27.1286H1104.69V28.6747H1100.26V31.4538H1105.08V33H1098.41ZM1108.64 28.5256V33H1106.84V25.3636H1108.56V26.6612H1108.65C1108.82 26.2337 1109.1 25.8939 1109.49 25.642C1109.88 25.3902 1110.36 25.2642 1110.93 25.2642C1111.45 25.2642 1111.91 25.3769 1112.3 25.6023C1112.7 25.8277 1113 26.1541 1113.22 26.5817C1113.44 27.0092 1113.54 27.5279 1113.54 28.1378V33H1111.74V28.4162C1111.74 27.9058 1111.61 27.5064 1111.34 27.218C1111.08 26.9297 1110.72 26.7855 1110.25 26.7855C1109.94 26.7855 1109.66 26.8551 1109.41 26.9943C1109.17 27.1302 1108.98 27.3274 1108.84 27.5859C1108.71 27.8445 1108.64 28.1577 1108.64 28.5256ZM1118.69 36.0227C1118.04 36.0227 1117.49 35.9349 1117.03 35.7592C1116.56 35.5869 1116.19 35.3549 1115.91 35.0632C1115.63 34.7715 1115.43 34.4484 1115.32 34.0938L1116.94 33.701C1117.01 33.8501 1117.12 33.9976 1117.26 34.1435C1117.4 34.2926 1117.59 34.4152 1117.82 34.5114C1118.06 34.6108 1118.36 34.6605 1118.72 34.6605C1119.23 34.6605 1119.65 34.5362 1119.99 34.2876C1120.32 34.0424 1120.49 33.638 1120.49 33.0746V31.6278H1120.4C1120.31 31.8134 1120.17 32.004 1119.99 32.1996C1119.82 32.3951 1119.58 32.5592 1119.29 32.6918C1119 32.8243 1118.64 32.8906 1118.2 32.8906C1117.62 32.8906 1117.09 32.7531 1116.61 32.478C1116.13 32.1996 1115.76 31.7853 1115.47 31.2351C1115.2 30.6816 1115.06 29.9889 1115.06 29.157C1115.06 28.3184 1115.2 27.6108 1115.47 27.0341C1115.76 26.4541 1116.14 26.0149 1116.61 25.7166C1117.09 25.415 1117.62 25.2642 1118.21 25.2642C1118.66 25.2642 1119.02 25.3404 1119.31 25.4929C1119.6 25.642 1119.84 25.8227 1120.01 26.0348C1120.18 26.2436 1120.31 26.4408 1120.4 26.6264H1120.5V25.3636H1122.28V33.1243C1122.28 33.7772 1122.12 34.3175 1121.81 34.745C1121.5 35.1726 1121.07 35.4924 1120.53 35.7045C1119.99 35.9167 1119.38 36.0227 1118.69 36.0227ZM1118.71 31.4787C1119.09 31.4787 1119.41 31.3859 1119.68 31.2003C1119.95 31.0147 1120.15 30.7479 1120.29 30.3999C1120.43 30.0518 1120.5 29.6342 1120.5 29.147C1120.5 28.6664 1120.43 28.2455 1120.29 27.8842C1120.16 27.523 1119.95 27.2429 1119.69 27.044C1119.42 26.8419 1119.09 26.7408 1118.71 26.7408C1118.3 26.7408 1117.97 26.8452 1117.7 27.054C1117.43 27.2628 1117.23 27.5495 1117.1 27.9141C1116.96 28.2753 1116.89 28.6863 1116.89 29.147C1116.89 29.6143 1116.96 30.0237 1117.1 30.375C1117.23 30.723 1117.44 30.9948 1117.71 31.1903C1117.98 31.3826 1118.31 31.4787 1118.71 31.4787ZM1125.92 22.8182V33H1124.12V22.8182H1125.92ZM1127.77 33V25.3636H1129.57V33H1127.77ZM1128.68 24.2798C1128.39 24.2798 1128.14 24.1854 1127.94 23.9964C1127.73 23.8042 1127.63 23.5739 1127.63 23.3054C1127.63 23.0336 1127.73 22.8033 1127.94 22.6143C1128.14 22.4221 1128.39 22.326 1128.68 22.326C1128.96 22.326 1129.21 22.4221 1129.41 22.6143C1129.62 22.8033 1129.72 23.0336 1129.72 23.3054C1129.72 23.5739 1129.62 23.8042 1129.41 23.9964C1129.21 24.1854 1128.96 24.2798 1128.68 24.2798ZM1137.46 27.3821L1135.82 27.5611C1135.77 27.3954 1135.69 27.2396 1135.57 27.0938C1135.46 26.9479 1135.31 26.8303 1135.11 26.7408C1134.92 26.6513 1134.69 26.6065 1134.41 26.6065C1134.03 26.6065 1133.72 26.6877 1133.46 26.8501C1133.21 27.0125 1133.09 27.223 1133.09 27.4815C1133.09 27.7036 1133.17 27.8842 1133.33 28.0234C1133.5 28.1626 1133.78 28.277 1134.17 28.3665L1135.47 28.6449C1136.2 28.8007 1136.73 29.0476 1137.08 29.3857C1137.44 29.7237 1137.62 30.1662 1137.62 30.7131C1137.62 31.1937 1137.48 31.6179 1137.2 31.9858C1136.92 32.3504 1136.54 32.6354 1136.05 32.8409C1135.56 33.0464 1135 33.1491 1134.36 33.1491C1133.42 33.1491 1132.67 32.9536 1132.1 32.5625C1131.53 32.1681 1131.19 31.6196 1131.08 30.9169L1132.84 30.7479C1132.92 31.0926 1133.09 31.3527 1133.34 31.5284C1133.6 31.7041 1133.94 31.7919 1134.35 31.7919C1134.78 31.7919 1135.12 31.7041 1135.38 31.5284C1135.65 31.3527 1135.78 31.1357 1135.78 30.8771C1135.78 30.6584 1135.69 30.4777 1135.52 30.3352C1135.36 30.1927 1135.1 30.0833 1134.75 30.0071L1133.44 29.7337C1132.71 29.5812 1132.17 29.3243 1131.82 28.9631C1131.47 28.5985 1131.29 28.1378 1131.3 27.581C1131.29 27.1103 1131.42 26.7027 1131.68 26.358C1131.94 26.0099 1132.3 25.7415 1132.77 25.5526C1133.24 25.3603 1133.77 25.2642 1134.38 25.2642C1135.28 25.2642 1135.98 25.4548 1136.5 25.8359C1137.01 26.2171 1137.33 26.7325 1137.46 27.3821ZM1140.9 28.5256V33H1139.1V22.8182H1140.86V26.6612H1140.95C1141.13 26.2304 1141.41 25.8906 1141.78 25.642C1142.16 25.3902 1142.64 25.2642 1143.23 25.2642C1143.76 25.2642 1144.22 25.3752 1144.61 25.5973C1145.01 25.8194 1145.31 26.1442 1145.53 26.5717C1145.75 26.9993 1145.86 27.5213 1145.86 28.1378V33H1144.06V28.4162C1144.06 27.9025 1143.92 27.5031 1143.66 27.218C1143.4 26.9297 1143.03 26.7855 1142.55 26.7855C1142.24 26.7855 1141.95 26.8551 1141.7 26.9943C1141.45 27.1302 1141.26 27.3274 1141.11 27.5859C1140.97 27.8445 1140.9 28.1577 1140.9 28.5256ZM1151.61 27.9091C1151.61 26.6662 1151.77 25.5244 1152.1 24.4837C1152.43 23.4396 1152.93 22.4751 1153.58 21.5902H1155.27C1155.02 21.9183 1154.79 22.321 1154.57 22.7983C1154.35 23.2723 1154.16 23.7926 1154 24.3594C1153.84 24.9228 1153.71 25.5078 1153.62 26.1143C1153.53 26.7209 1153.48 27.3191 1153.48 27.9091C1153.48 28.6946 1153.56 29.4901 1153.72 30.2955C1153.88 31.1009 1154.09 31.8482 1154.36 32.5376C1154.63 33.2237 1154.94 33.7855 1155.27 34.223H1153.58C1152.93 33.3381 1152.43 32.3752 1152.1 31.3345C1151.77 30.2905 1151.61 29.1487 1151.61 27.9091ZM1163.17 22.8182H1165.02V29.4702C1165.02 30.1993 1164.84 30.8407 1164.5 31.3942C1164.16 31.9477 1163.68 32.3802 1163.06 32.6918C1162.44 33 1161.71 33.1541 1160.88 33.1541C1160.05 33.1541 1159.33 33 1158.71 32.6918C1158.09 32.3802 1157.61 31.9477 1157.26 31.3942C1156.92 30.8407 1156.75 30.1993 1156.75 29.4702V22.8182H1158.6V29.3161C1158.6 29.7403 1158.69 30.1181 1158.88 30.4496C1159.06 30.781 1159.33 31.0412 1159.67 31.2301C1160.01 31.4157 1160.42 31.5085 1160.88 31.5085C1161.35 31.5085 1161.76 31.4157 1162.1 31.2301C1162.44 31.0412 1162.71 30.781 1162.89 30.4496C1163.08 30.1181 1163.17 29.7403 1163.17 29.3161V22.8182ZM1167.02 33V22.8182H1168.86V27.4964H1168.99L1172.96 22.8182H1175.21L1171.28 27.3871L1175.25 33H1173.03L1169.99 28.6349L1168.86 29.9673V33H1167.02ZM1179.63 27.9091C1179.63 29.1487 1179.46 30.2905 1179.13 31.3345C1178.8 32.3752 1178.31 33.3381 1177.66 34.223H1175.96C1176.22 33.8949 1176.45 33.4938 1176.67 33.0199C1176.89 32.5459 1177.08 32.0256 1177.24 31.4588C1177.4 30.892 1177.52 30.3054 1177.61 29.6989C1177.71 29.0923 1177.75 28.4957 1177.75 27.9091C1177.75 27.1236 1177.67 26.3281 1177.51 25.5227C1177.36 24.7173 1177.14 23.9699 1176.87 23.2805C1176.6 22.5911 1176.3 22.0277 1175.96 21.5902H1177.66C1178.31 22.4751 1178.8 23.4396 1179.13 24.4837C1179.46 25.5244 1179.63 26.6662 1179.63 27.9091Z" fill="#212121"/>
</svg>
