<svg width="24" height="24" viewBox="0 0 24 24" fill="none" xmlns="http://www.w3.org/2000/svg">
<path d="M1.46967 19.2175C1.17678 19.5104 1.17678 19.9852 1.46967 20.2781C1.76256 20.571 2.23743 20.571 2.53033 20.2781L1.46967 19.2175ZM17.0743 4.6736L16.544 4.14327L16.544 4.14327L17.0743 4.6736ZM20.3265 4.6736L20.8568 4.14327L20.8568 4.14326L20.3265 4.6736ZM20.3264 7.92575L19.7961 7.39542L19.7961 7.39542L20.3264 7.92575ZM20.124 8.10567L19.6597 7.51666L19.6597 7.51666L20.124 8.10567ZM13.773 12.1568C13.4477 12.4133 13.3919 12.8848 13.6483 13.2101C13.9047 13.5354 14.3763 13.5913 14.7016 13.3349L13.773 12.1568ZM12.1556 9.61257C11.8627 9.31968 11.3879 9.31968 11.095 9.61257C10.8021 9.90546 10.8021 10.3803 11.095 10.6732L12.1556 9.61257ZM15.7142 14.2318L15.1839 14.7621L15.1839 14.7621L15.7142 14.2318ZM13.8465 16.8066L14.3768 17.3369H14.3768L13.8465 16.8066ZM2.53034 19.2378C2.23745 18.945 1.76257 18.945 1.46968 19.2379C1.17679 19.5307 1.17679 20.0056 1.46968 20.2985L2.53034 19.2378ZM1.25 19.77C1.25 20.1842 1.58579 20.52 2 20.52C2.41421 20.52 2.75 20.1842 2.75 19.77H1.25ZM2.75 19.75C2.75 19.3358 2.41421 19 2 19C1.58579 19 1.25 19.3358 1.25 19.75H2.75ZM2.53033 20.2781L17.6046 5.20393L16.544 4.14327L1.46967 19.2175L2.53033 20.2781ZM17.6046 5.20393C18.2098 4.59877 19.191 4.59877 19.7961 5.20393L20.8568 4.14326C19.6658 2.95233 17.7349 2.95233 16.544 4.14327L17.6046 5.20393ZM19.7961 5.20393C20.4013 5.80909 20.4013 6.79026 19.7961 7.39542L20.8568 8.45608C22.0477 7.26514 22.0477 5.33422 20.8568 4.14327L19.7961 5.20393ZM19.7961 7.39542C19.7531 7.43848 19.7075 7.47896 19.6597 7.51666L20.5882 8.69469C20.6824 8.6205 20.772 8.54082 20.8568 8.45608L19.7961 7.39542ZM19.6597 7.51666L13.773 12.1568L14.7016 13.3349L20.5883 8.69469L19.6597 7.51666ZM11.095 10.6732L15.1839 14.7621L16.2445 13.7014L12.1556 9.61257L11.095 10.6732ZM15.1839 14.7621C15.0862 14.6645 15.0862 14.5062 15.1838 14.4086L16.2445 15.4692C16.7327 14.9811 16.7327 14.1896 16.2445 13.7014L15.1839 14.7621ZM15.1838 14.4086C15.1838 14.4086 15.1838 14.4086 15.1838 14.4086C15.1838 14.4086 15.1838 14.4086 15.1838 14.4086C15.1838 14.4086 15.1838 14.4086 15.1838 14.4086C15.1838 14.4086 15.1838 14.4086 15.1838 14.4086C15.1838 14.4086 15.1838 14.4086 15.1838 14.4086C15.1838 14.4086 15.1838 14.4086 15.1838 14.4086C15.1838 14.4086 15.1838 14.4086 15.1838 14.4086C15.1837 14.4087 15.1837 14.4087 15.1837 14.4087C15.1836 14.4088 15.1832 14.4092 15.1828 14.4096C15.184 15.4694 16.244 15.4697 16.2442 15.4695C16.2443 15.4694 16.2444 15.4693 16.2444 15.4693C16.2444 15.4693 16.2445 15.4693 16.2445 15.4693C16.2445 15.4693 16.2445 15.4692 16.2445 15.4692C16.2445 15.4692 16.2445 15.4692 16.2445 15.4692C16.2445 15.4692 16.2445 15.4692 16.2445 15.4692C16.2445 15.4692 16.2445 15.4692 16.2445 15.4692C16.2445 15.4692 16.2445 15.4692 16.2445 15.4692C16.2445 15.4692 16.2445 15.4692 16.2445 15.4692C16.2445 15.4692 16.2445 15.4692 16.2445 15.4692C16.2445 15.4692 16.2445 15.4692 16.2445 15.4692C16.2445 15.4692 16.2445 15.4692 16.2445 15.4692C16.2445 15.4692 16.2445 15.4692 16.2445 15.4692C16.2445 15.4692 16.2445 15.4692 16.2445 15.4692C16.2445 15.4692 16.2445 15.4692 16.2445 15.4692C16.2445 15.4692 16.2445 15.4692 16.2445 15.4692C16.2445 15.4692 16.2446 15.4692 16.2446 15.4692C16.2446 15.4692 16.2446 15.4691 16.2446 15.4691C16.2446 15.4691 16.2447 15.469 16.2448 15.4689C16.245 15.4687 16.2447 14.4087 15.1849 14.4076C15.1845 14.4079 15.1841 14.4083 15.184 14.4084C15.184 14.4084 15.184 14.4085 15.1839 14.4085C15.1839 14.4085 15.1839 14.4085 15.1839 14.4085C15.1839 14.4085 15.1839 14.4085 15.1839 14.4085C15.1839 14.4085 15.1839 14.4085 15.1839 14.4085C15.1839 14.4085 15.1839 14.4085 15.1839 14.4085C15.1839 14.4085 15.1839 14.4085 15.1839 14.4085C15.1839 14.4085 15.1839 14.4085 15.1839 14.4085C15.1839 14.4086 15.1839 14.4086 15.1839 14.4086L16.2445 15.4692C16.2445 15.4692 16.2445 15.4692 16.2445 15.4692C16.2445 15.4692 16.2445 15.4692 16.2445 15.4692C16.2445 15.4692 16.2445 15.4692 16.2445 15.4692C16.2445 15.4692 16.2445 15.4692 16.2445 15.4692C16.2445 15.4692 16.2445 15.4692 16.2445 15.4692C16.2445 15.4692 16.2445 15.4693 16.2445 15.4693C16.2445 15.4693 16.2444 15.4693 16.2444 15.4693C16.2444 15.4693 16.2444 15.4693 16.2444 15.4693C16.2444 15.4693 16.2444 15.4694 16.2443 15.4694C16.2443 15.4695 16.2439 15.4699 16.2435 15.4702C15.1837 15.469 15.1834 14.409 15.1836 14.4088C15.1836 14.4088 15.1837 14.4087 15.1837 14.4087C15.1838 14.4086 15.1838 14.4086 15.1838 14.4086C15.1838 14.4086 15.1838 14.4086 15.1838 14.4086C15.1838 14.4086 15.1838 14.4086 15.1838 14.4086C15.1838 14.4086 15.1838 14.4086 15.1838 14.4086C15.1838 14.4086 15.1838 14.4086 15.1838 14.4086C15.1838 14.4086 15.1838 14.4086 15.1838 14.4086C15.1838 14.4086 15.1839 14.4086 15.1839 14.4086C15.1839 14.4086 15.1839 14.4086 15.1839 14.4086C15.1839 14.4086 15.1839 14.4086 15.1839 14.4086C15.1839 14.4086 15.1839 14.4086 15.1839 14.4086C15.1839 14.4086 15.1839 14.4086 15.1839 14.4086C15.1839 14.4085 15.1839 14.4085 15.1839 14.4085C15.1839 14.4085 15.1839 14.4085 15.1839 14.4085C15.1839 14.4085 15.1839 14.4085 15.1839 14.4085C15.1839 14.4085 15.1839 14.4085 15.1839 14.4085C15.1839 14.4085 15.1839 14.4085 15.184 14.4084C15.184 14.4084 15.1841 14.4083 15.1841 14.4083C15.1843 14.4081 16.2443 14.4084 16.2455 15.4682C16.2452 15.4686 16.2448 15.469 16.2447 15.469C16.2447 15.4691 16.2446 15.4691 16.2446 15.4691C16.2446 15.4691 16.2446 15.4691 16.2446 15.4692C16.2446 15.4691 16.2446 15.4692 16.2446 15.4692C16.2446 15.4692 16.2445 15.4692 16.2445 15.4692C16.2445 15.4692 16.2445 15.4692 16.2445 15.4692C16.2445 15.4692 16.2445 15.4692 16.2445 15.4692C16.2445 15.4692 16.2445 15.4692 16.2445 15.4692C16.2445 15.4692 16.2445 15.4692 16.2445 15.4692C16.2445 15.4692 16.2445 15.4692 16.2445 15.4692L15.1838 14.4086ZM15.1839 14.4086L13.3162 16.2762L14.3768 17.3369L16.2445 15.4692L15.1839 14.4086ZM13.3162 16.2762C11.3512 18.2412 9.11894 19.5155 7.12799 20.0133C5.12015 20.5152 3.49762 20.2051 2.53034 19.2378L1.46968 20.2985C2.9559 21.7847 5.21205 22.0384 7.49179 21.4685C9.78843 20.8943 12.2527 19.4611 14.3768 17.3369L13.3162 16.2762ZM2.75 19.77V19.75H1.25V19.77H2.75Z" fill="#212121"/>
</svg>
