<svg width="33" height="40" viewBox="0 0 33 40" fill="none" xmlns="http://www.w3.org/2000/svg">
<path fill-rule="evenodd" clip-rule="evenodd" d="M12.6673 0C12.9489 0.00490828 13.2286 0.0328725 13.5062 0.0838926C13.8519 0.266037 14.2062 0.433822 14.5688 0.587248C15.4394 0.832209 16.3156 1.05592 17.1975 1.25839C18.8671 1.79501 20.4331 2.54072 21.8955 3.49553C24.4479 5.11487 26.7317 7.06303 28.7467 9.34004C30.7095 11.8123 31.9773 14.6087 32.5498 17.7293C32.7669 20.5799 32.5432 23.395 31.8787 26.1745C31.6979 26.7598 31.4555 27.3191 31.1516 27.8523C29.773 30.1259 27.974 31.9995 25.7545 33.4732C24.8037 34.0977 23.853 34.7222 22.9022 35.3468C22.8835 35.5518 22.8649 35.7569 22.8462 35.962C22.8811 36.8193 22.9091 37.6768 22.9301 38.5347C22.9569 39.6253 22.1471 37.7469 22.3709 35.4027C20.9165 35.8999 19.453 36.3753 17.9805 36.8289C16.4411 37.3114 14.8751 37.4418 13.2825 37.2204C12.7493 36.9963 12.1993 36.8377 11.6326 36.745C11.5185 36.7966 11.3973 36.8152 11.2691 36.8009C11.2835 37.4726 11.2928 38.1437 11.297 38.8143C11.2735 39.0588 11.2362 39.3012 11.1852 39.5414C11.1446 39.6341 11.0794 39.6621 10.9894 39.6253C10.8107 39.4064 10.7082 39.1547 10.6818 38.8702C10.6492 38.357 10.6586 37.8443 10.7098 37.3322C10.7086 37.0173 10.662 36.7097 10.57 36.4094C9.8099 35.9501 9.03625 35.512 8.24894 35.0951C6.96432 34.2395 5.83642 33.2049 4.86528 31.991C3.94895 30.8324 3.05409 29.6579 2.18072 28.4676C1.17317 26.6933 0.697774 24.7824 0.754542 22.7349C0.76858 20.5768 1.22529 18.5168 2.12479 16.5548C2.80426 15.0828 3.62451 13.7032 4.58563 12.4161C5.0254 11.9576 5.48217 11.5195 5.95588 11.1018C7.30728 10.0301 8.70549 9.02338 10.1505 8.08165C10.6223 7.84575 11.107 7.64066 11.6046 7.46644C11.7777 7.23238 11.9642 7.00867 12.1639 6.7953C12.4386 6.71186 12.7182 6.69318 13.0029 6.73937C13.0494 6.78596 13.0961 6.83261 13.1427 6.87919C13.1986 7.12153 13.2545 7.36393 13.3105 7.60626C13.6289 7.73467 13.9365 7.88378 14.2333 8.05369C14.3395 8.68786 14.0785 9.10733 13.4503 9.31208C12.2749 9.48009 11.1936 9.89021 10.2064 10.5425C8.64452 11.6563 7.18105 12.896 5.81606 14.2617C4.89184 15.4761 4.20208 16.8184 3.74671 18.2886C2.173 23.0666 3.1051 27.2798 6.54313 30.9284C6.93463 31.3199 7.32612 31.7114 7.71762 32.1029C7.80946 31.8116 7.86539 31.5134 7.88541 31.208C7.85895 29.325 7.86824 27.4421 7.91337 25.5593C7.88278 24.6409 7.81757 23.7273 7.71762 22.8188C7.79469 22.723 7.88793 22.6484 7.99726 22.5951C8.03457 22.2781 8.03457 21.9612 7.99726 21.6443C7.77193 21.3711 7.63211 21.0635 7.5778 20.7215C7.80146 19.4348 8.5099 18.5213 9.70308 17.981C10.5678 17.6477 11.4626 17.4799 12.3876 17.4776C12.6366 17.7909 12.8975 18.0892 13.1706 18.3725C13.3911 18.428 13.6148 18.4653 13.8418 18.4843C13.644 19.2688 13.178 19.8187 12.4436 20.1342C12.115 20.035 11.7795 19.979 11.4369 19.9664C10.9499 20.0134 10.4652 20.0786 9.98272 20.1622C9.55845 20.5862 9.17629 21.043 8.83619 21.5324C8.80291 24.3535 8.65381 27.1686 8.38876 29.9776C8.32607 30.7226 8.30744 31.4683 8.33284 32.2148C10.0778 34.0798 12.231 35.0399 14.7926 35.0951C14.7493 34.9606 14.7213 34.8207 14.7087 34.6756C14.69 33.613 14.6714 32.5503 14.6527 31.4877C14.6423 31.0437 14.5398 30.6242 14.3451 30.2293C13.9034 30.0594 13.6144 30.1992 13.4782 30.6488C13.4687 30.9303 13.4407 31.2099 13.3944 31.4877C13.282 31.0947 13.1609 30.7032 13.0308 30.3132C12.8329 30.1629 12.6185 30.1256 12.3876 30.2013C12.3876 31.1148 12.3876 32.0284 12.3876 32.9418C12.3317 32.9418 12.2758 32.9418 12.2199 32.9418C12.03 32.2119 12.0114 31.4755 12.1639 30.7327C12.138 30.4766 12.0914 30.2249 12.0241 29.9776C11.8443 30.2864 11.7511 30.6219 11.7445 30.9843C11.7611 31.8229 11.7611 32.6618 11.7445 33.5011C11.6845 33.5447 11.6192 33.5354 11.5487 33.4732C11.2219 33.212 11.0728 32.8671 11.1013 32.4385C11.1469 31.6734 11.2029 30.9091 11.2691 30.1454C11.2902 29.6738 11.169 29.245 10.9055 28.8591C10.5257 28.5355 10.2087 28.1626 9.95476 27.7405C9.84329 27.4123 9.87126 27.0954 10.0387 26.7897C10.2593 26.8628 10.4644 26.9653 10.6539 27.0973C11.0181 27.13 11.3723 27.2046 11.7165 27.321C12.2041 27.7154 12.7074 28.0883 13.2266 28.4396C13.6581 28.5393 14.0961 28.5859 14.5409 28.5794C15.5779 28.5496 16.6125 28.4843 17.6449 28.3837C18.7072 28.2346 19.6952 27.8804 20.6091 27.321C21.1545 26.9621 21.6671 26.5613 22.1471 26.1186C22.2727 26.1542 22.3939 26.2008 22.5107 26.2584C22.7152 26.4353 22.9389 26.5844 23.1818 26.7058C23.272 26.7461 23.3559 26.7368 23.4335 26.6778C23.3517 25.9844 23.3051 25.2853 23.2937 24.5805C23.3461 23.4529 23.3554 22.325 23.3216 21.1969C23.2835 20.7248 23.2089 20.2587 23.0979 19.7987C23.054 19.6988 22.9888 19.6149 22.9022 19.547C22.3056 19.2673 21.7091 18.9877 21.1125 18.7081C20.8641 18.5715 20.6497 18.3944 20.4693 18.1767C20.2495 18.4142 20.0445 18.6565 19.8541 18.9038C19.6469 18.7243 19.4325 18.5565 19.2109 18.4004C18.8527 18.4883 18.6384 18.712 18.5677 19.0716C18.5583 19.5202 18.5304 19.9676 18.4838 20.4139C18.4652 20.4045 18.4465 20.3952 18.4279 20.3859C18.2929 20.0273 18.237 19.6545 18.2601 19.2673C18.2666 18.5935 18.3505 17.9317 18.5118 17.2819C18.9466 16.8825 19.4407 16.5749 19.9939 16.3591C20.655 16.1387 21.3075 15.8964 21.9514 15.632C22.0446 15.5947 22.1378 15.5947 22.231 15.632C23.6617 16.5405 24.7337 17.7616 25.4469 19.2953C25.4475 19.4828 25.3543 19.6133 25.1673 19.6868C25.0988 19.6666 25.0335 19.6386 24.9715 19.6029C24.7739 19.3865 24.5595 19.1908 24.3283 19.0157C24.2772 19.062 24.2399 19.1179 24.2165 19.1834C24.1191 19.776 24.0632 20.3725 24.0487 20.9732C24.057 22.7628 24.057 24.5525 24.0487 26.3423C24.0415 26.8545 23.9762 27.3578 23.853 27.8523C23.6396 27.6503 23.4811 27.4079 23.3776 27.1253C22.3863 28.3214 21.1838 29.2442 19.7702 29.8937C19.5212 30.1735 19.4839 30.4811 19.6583 30.8166C19.2646 30.9802 18.8545 31.0734 18.4279 31.0962C17.7898 31.0003 17.1559 30.8791 16.5263 30.7327C16.1541 30.6929 15.7813 30.6649 15.4078 30.6488C15.4072 31.4974 15.3885 32.3456 15.3518 33.1935C15.3469 33.8428 15.4028 34.486 15.5196 35.123C17.7834 35.1443 19.9459 34.6876 22.0073 33.7528C23.7955 32.8589 25.5479 31.9081 27.2646 30.9004C28.3192 29.5466 29.2979 28.139 30.2008 26.6778C31.5722 24.2367 31.9637 21.6454 31.3753 18.9038C30.8536 15.8846 29.5858 13.2374 27.5722 10.962C26.6867 9.92729 25.7266 8.96717 24.6919 8.08165C24.0544 7.66963 23.3832 7.31538 22.6785 7.01901C20.9633 6.29195 19.2482 5.56488 17.5331 4.83781C15.4162 4.07888 13.235 3.65009 10.9894 3.55145C10.3117 3.50914 9.65918 3.35999 9.03194 3.10403C8.67814 2.83382 8.30532 2.59146 7.91337 2.37696C7.61511 2.32103 7.31678 2.2651 7.01852 2.20917C6.68205 2.15121 6.42104 1.98343 6.23552 1.70582C6.53709 1.10701 7.02182 0.752802 7.68966 0.643177C9.1938 0.427325 10.6852 0.501896 12.1639 0.86689C15.293 1.72342 18.3318 2.82334 21.2803 4.16667C21.7277 4.46495 22.1751 4.76324 22.6225 5.06152C22.8657 5.22111 23.1267 5.31433 23.4055 5.34116C22.2784 4.28285 20.9921 3.46257 19.5465 2.88031C18.4075 2.42608 17.2517 2.01594 16.0789 1.64989C14.6227 1.25764 13.1872 0.810212 11.7724 0.307606C11.847 0.233035 11.9216 0.158464 11.9961 0.0838926C12.2304 0.0740391 12.4541 0.0460749 12.6673 0Z" fill="#F44848"/>
</svg>
